<?xml version="1.0" encoding="UTF-8"?>
<svg version="1.1" xmlns="http://www.w3.org/2000/svg" width="72" height="72">
<path d="M0 0 C23.76 0 47.52 0 72 0 C72 23.76 72 47.52 72 72 C48.24 72 24.48 72 0 72 C0 48.24 0 24.48 0 0 Z " fill="#0180F9" transform="translate(0,0)"/>
<path d="M0 0 C2.63257335 1.45030859 4.67018009 3.06674518 7 5 C7.40089844 4.55527344 7.80179688 4.11054688 8.21484375 3.65234375 C10.71370162 1.16481857 12.72141607 -0.76109504 16.2578125 -1.421875 C20.69676352 -1.21121292 23.3617235 -0.17240679 26.375 3.125 C32.1227334 11.06006527 33.1796321 18.21599256 32 28 C30.32336806 31.51994658 29.28109553 32.81260298 26 35 C19.37769316 35.10856241 19.37769316 35.10856241 16.3203125 32.6484375 C14.72710608 30.84060223 13.35156648 28.99498827 12 27 C11.26716797 25.92492188 11.26716797 25.92492188 10.51953125 24.828125 C7 19.42559524 7 19.42559524 7 17 C4.39767028 19.34900559 2.87495785 21.81619211 1.1875 24.875 C-1.44261766 29.31697649 -3.60622454 32.25389034 -8 35 C-11.87767078 35.71222525 -13.38870618 35.37511212 -16.75 33.3125 C-20.23630825 29.72934986 -21.10758179 26.71229164 -21.375 21.8125 C-21.15992911 13.73389967 -17.71737814 7.1680977 -12.3671875 1.27734375 C-8.75474525 -2.09770944 -4.48538351 -1.10308291 0 0 Z " fill="#F3F9FE" transform="translate(30,19)"/>
<path d="M0 0 C3.60926906 0.64966843 4.94968584 1.8515773 7.08984375 4.796875 C10.23050568 10.15377762 10.92841389 16.46600638 10.125 22.5625 C9.465 23.5525 8.805 24.5425 8.125 25.5625 C5.25800849 25.22775054 3.59176854 25.02969345 1.51586914 22.9519043 C0.05566511 20.72754522 -1.39904022 18.50449614 -2.8125 16.25 C-3.33134766 15.47720703 -3.85019531 14.70441406 -4.38476562 13.90820312 C-5.1050293 12.78381836 -5.1050293 12.78381836 -5.83984375 11.63671875 C-6.49907837 10.60937622 -6.49907837 10.60937622 -7.17163086 9.5612793 C-7.875 7.5625 -7.875 7.5625 -7.08032227 5.41723633 C-4.9475927 2.13541609 -3.9826569 0.77921548 0 0 Z " fill="#0683F9" transform="translate(46.875,22.4375)"/>
<path d="M0 0 C4.49732684 1.34130801 5.19612651 3.15668354 7.5625 7.0625 C6.12967148 9.33640187 4.69149467 11.60660141 3.25 13.875 C2.84587891 14.51759766 2.44175781 15.16019531 2.02539062 15.82226562 C1.62900391 16.44423828 1.23261719 17.06621094 0.82421875 17.70703125 C0.46287842 18.27784424 0.10153809 18.84865723 -0.27075195 19.43676758 C-1.53844355 21.20315351 -2.7702169 22.66253822 -4.4375 24.0625 C-7.0625 23.875 -7.0625 23.875 -9.4375 23.0625 C-11.29874821 19.34000358 -10.8762939 15.12430837 -10.4375 11.0625 C-8.59612821 5.62042595 -6.22426771 0.1131685 0 0 Z " fill="#0884F9" transform="translate(25.4375,23.9375)"/>
</svg>
