<?xml version="1.0" encoding="UTF-8"?>
<!DOCTYPE svg PUBLIC "-//W3C//DTD SVG 1.1//EN" "http://www.w3.org/Graphics/SVG/1.1/DTD/svg11.dtd">
<svg xmlns="http://www.w3.org/2000/svg" version="1.1" width="196px" height="196px" style="shape-rendering:geometricPrecision; text-rendering:geometricPrecision; image-rendering:optimizeQuality; fill-rule:evenodd; clip-rule:evenodd" xmlns:xlink="http://www.w3.org/1999/xlink">
<g><path style="opacity:1" fill="#2d937e" d="M 4.5,-0.5 C 9.5,-0.5 14.5,-0.5 19.5,-0.5C 32.2588,12.819 45.4255,25.819 59,38.5C 59.7914,39.745 60.2914,41.0783 60.5,42.5C 57.5,44.5 54.5,46.5 51.5,48.5C 38.206,33.1819 23.8727,18.6819 8.5,5C 7.27869,2.96634 5.94535,1.133 4.5,-0.5 Z"/></g>
<g><path style="opacity:1" fill="#329984" d="M 19.5,-0.5 C 29.1667,-0.5 38.8333,-0.5 48.5,-0.5C 58.9659,9.79976 69.2992,20.2998 79.5,31C 77.9419,31.21 76.6085,31.71 75.5,32.5C 70.5,35.8333 65.5,39.1667 60.5,42.5C 60.2914,41.0783 59.7914,39.745 59,38.5C 45.4255,25.819 32.2588,12.819 19.5,-0.5 Z"/></g>
<g><path style="opacity:1" fill="#39a08a" d="M 48.5,-0.5 C 56.8333,-0.5 65.1667,-0.5 73.5,-0.5C 83.9859,10.7015 94.4859,22.0348 105,33.5C 105.333,33.1667 105.667,32.8333 106,32.5C 110.824,37.4578 115.658,42.4578 120.5,47.5C 121.262,51.1111 121.762,54.7778 122,58.5C 122.383,59.056 122.883,59.3893 123.5,59.5C 125.246,61.2516 127.246,62.5849 129.5,63.5C 129.5,66.5 129.5,69.5 129.5,72.5C 121.5,72.5 113.5,72.5 105.5,72.5C 105.666,62.4944 105.5,52.4944 105,42.5C 95.5727,38.0796 85.7394,34.7463 75.5,32.5C 76.6085,31.71 77.9419,31.21 79.5,31C 69.2992,20.2998 58.9659,9.79976 48.5,-0.5 Z"/></g>
<g><path style="opacity:1" fill="#3da58e" d="M 73.5,-0.5 C 80.1667,-0.5 86.8333,-0.5 93.5,-0.5C 105.963,12.7978 118.63,25.9645 131.5,39C 130.584,39.2784 129.918,39.7784 129.5,40.5C 122.644,45.1173 120.644,51.4506 123.5,59.5C 122.883,59.3893 122.383,59.056 122,58.5C 121.762,54.7778 121.262,51.1111 120.5,47.5C 115.658,42.4578 110.824,37.4578 106,32.5C 105.667,32.8333 105.333,33.1667 105,33.5C 94.4859,22.0348 83.9859,10.7015 73.5,-0.5 Z"/></g>
<g><path style="opacity:1" fill="#40aa92" d="M 93.5,-0.5 C 100.5,-0.5 107.5,-0.5 114.5,-0.5C 117.479,3.14562 120.812,6.47896 124.5,9.5C 125.386,10.325 125.719,11.325 125.5,12.5C 136.842,21.7221 147.342,32.0554 157,43.5C 157.333,43.1667 157.667,42.8333 158,42.5C 162.594,48.2626 167.761,53.5959 173.5,58.5C 174.386,59.325 174.719,60.325 174.5,61.5C 175.675,61.281 176.675,61.6143 177.5,62.5C 182.868,68.8689 188.868,74.5355 195.5,79.5C 195.5,88.5 195.5,97.5 195.5,106.5C 193.372,104.554 191.039,102.721 188.5,101C 174.859,87.6913 161.525,74.0246 148.5,60C 146.803,59.6155 145.137,59.7822 143.5,60.5C 148.179,53.4337 147.179,47.2671 140.5,42C 136.94,40.7633 133.273,40.2633 129.5,40.5C 129.918,39.7784 130.584,39.2784 131.5,39C 118.63,25.9645 105.963,12.7978 93.5,-0.5 Z"/></g>
<g><path style="opacity:1" fill="#46b198" d="M 114.5,-0.5 C 124.833,-0.5 135.167,-0.5 145.5,-0.5C 159.571,14.0684 174.404,29.4017 190,45.5C 190.333,45.1667 190.667,44.8333 191,44.5C 192.748,46.401 194.248,48.401 195.5,50.5C 195.5,60.1667 195.5,69.8333 195.5,79.5C 188.868,74.5355 182.868,68.8689 177.5,62.5C 176.675,61.6143 175.675,61.281 174.5,61.5C 174.719,60.325 174.386,59.325 173.5,58.5C 167.761,53.5959 162.594,48.2626 158,42.5C 157.667,42.8333 157.333,43.1667 157,43.5C 147.342,32.0554 136.842,21.7221 125.5,12.5C 125.719,11.325 125.386,10.325 124.5,9.5C 120.812,6.47896 117.479,3.14562 114.5,-0.5 Z"/></g>
<g><path style="opacity:1" fill="#4db8a0" d="M 145.5,-0.5 C 162.167,-0.5 178.833,-0.5 195.5,-0.5C 195.5,16.5 195.5,33.5 195.5,50.5C 194.248,48.401 192.748,46.401 191,44.5C 190.667,44.8333 190.333,45.1667 190,45.5C 174.404,29.4017 159.571,14.0684 145.5,-0.5 Z"/></g>
<g><path style="opacity:1" fill="#258c78" d="M -0.5,-0.5 C 1.16667,-0.5 2.83333,-0.5 4.5,-0.5C 5.94535,1.133 7.27869,2.96634 8.5,5C 23.8727,18.6819 38.206,33.1819 51.5,48.5C 50.5416,48.9528 49.7083,49.6195 49,50.5C 48.6667,58.5 48.3333,66.5 48,74.5C 47.3292,75.2524 46.4959,75.5858 45.5,75.5C 45.4606,74.4168 45.1272,73.4168 44.5,72.5C 38.4408,67.2874 33.2741,61.9541 29,56.5C 19.277,46.9409 9.44366,37.6075 -0.5,28.5C -0.5,18.8333 -0.5,9.16667 -0.5,-0.5 Z"/></g>
<g><path style="opacity:1" fill="#238874" d="M -0.5,28.5 C 9.44366,37.6075 19.277,46.9409 29,56.5C 33.2741,61.9541 38.4408,67.2874 44.5,72.5C 45.1272,73.4168 45.4606,74.4168 45.5,75.5C 41.4765,77.9324 37.3098,80.2658 33,82.5C 32.5002,91.8274 32.3335,101.161 32.5,110.5C 31.7482,101.991 31.0815,93.3241 30.5,84.5C 28.7913,81.8058 27.1246,79.1391 25.5,76.5C 24.325,76.719 23.325,76.3857 22.5,75.5C 14.9001,67.5447 7.23345,59.878 -0.5,52.5C -0.5,44.5 -0.5,36.5 -0.5,28.5 Z"/></g>
<g><path style="opacity:1" fill="#f9fcfb" d="M 75.5,32.5 C 85.7394,34.7463 95.5727,38.0796 105,42.5C 105.5,52.4944 105.666,62.4944 105.5,72.5C 113.65,73.4927 121.983,73.8261 130.5,73.5C 130.813,69.9581 130.479,66.6248 129.5,63.5C 127.246,62.5849 125.246,61.2516 123.5,59.5C 120.644,51.4506 122.644,45.1173 129.5,40.5C 133.273,40.2633 136.94,40.7633 140.5,42C 147.179,47.2671 148.179,53.4337 143.5,60.5C 142.235,61.4793 140.901,62.4793 139.5,63.5C 138.789,68.8826 138.122,74.2159 137.5,79.5C 136.711,79.7828 136.044,80.2828 135.5,81C 125.506,81.4998 115.506,81.6665 105.5,81.5C 105.5,86.8333 105.5,92.1667 105.5,97.5C 116.853,97.8322 128.186,97.4988 139.5,96.5C 142.491,91.0042 147.158,88.6709 153.5,89.5C 159.974,91.7525 162.974,96.4192 162.5,103.5C 160.714,110.736 156.047,114.07 148.5,113.5C 144.176,112.841 141.176,110.508 139.5,106.5C 128.186,105.501 116.853,105.168 105.5,105.5C 105.5,111.167 105.5,116.833 105.5,122.5C 113.174,122.334 120.841,122.5 128.5,123C 131.167,125.667 133.833,128.333 136.5,131C 144.529,128.853 150.529,131.353 154.5,138.5C 155.184,149.984 149.85,155.151 138.5,154C 131.38,150.589 129.047,145.089 131.5,137.5C 129.684,135.183 127.684,133.016 125.5,131C 118.842,130.5 112.175,130.334 105.5,130.5C 105.5,137.5 105.5,144.5 105.5,151.5C 105.047,152.458 104.381,153.292 103.5,154C 101.277,154.566 99.2774,155.4 97.5,156.5C 90.2178,158.705 82.8845,160.705 75.5,162.5C 67.5,157.167 59.5,151.833 51.5,146.5C 50.5,145.833 49.5,145.167 48.5,144.5C 48.6664,136.493 48.4997,128.493 48,120.5C 43.2451,117.872 38.4118,115.372 33.5,113C 32.7476,112.329 32.4142,111.496 32.5,110.5C 32.3335,101.161 32.5002,91.8274 33,82.5C 37.3098,80.2658 41.4765,77.9324 45.5,75.5C 46.4959,75.5858 47.3292,75.2524 48,74.5C 48.3333,66.5 48.6667,58.5 49,50.5C 49.7083,49.6195 50.5416,48.9528 51.5,48.5C 54.5,46.5 57.5,44.5 60.5,42.5C 65.5,39.1667 70.5,35.8333 75.5,32.5 Z"/></g>
<g><path style="opacity:1" fill="#349783" d="M 97.5,87.5 C 94.9984,85.8304 92.9984,83.6637 91.5,81C 89.8034,80.6155 88.1368,80.7822 86.5,81.5C 87.1217,80.3734 87.955,79.3734 89,78.5C 89.4992,73.8452 89.6658,69.1785 89.5,64.5C 86.8333,64.5 84.1667,64.5 81.5,64.5C 81.665,67.8499 81.4983,71.1832 81,74.5C 76.8008,77.3588 72.3008,79.1922 67.5,80C 64.1667,78.3333 60.8333,76.6667 57.5,75C 56.3555,68.2476 56.1888,61.4143 57,54.5C 59.0519,52.9415 61.2185,51.6082 63.5,50.5C 64.1667,55.1667 64.8333,59.8333 65.5,64.5C 67.8333,64.5 70.1667,64.5 72.5,64.5C 72.1697,57.4684 72.503,50.4684 73.5,43.5C 74.646,42.8551 75.646,42.0217 76.5,41C 83.1222,42.8173 89.7888,44.9839 96.5,47.5C 97.4992,60.8167 97.8325,74.15 97.5,87.5 Z"/></g>
<g><path style="opacity:1" fill="#4dab96" d="M 132.5,48.5 C 138.488,48.664 139.821,51.164 136.5,56C 130.202,56.4954 128.868,53.9954 132.5,48.5 Z"/></g>
<g><path style="opacity:1" fill="#b7d9d2" d="M 63.5,50.5 C 63.56,49.9569 63.8933,49.6236 64.5,49.5C 65.4941,54.456 65.8275,59.456 65.5,64.5C 64.8333,59.8333 64.1667,55.1667 63.5,50.5 Z"/></g>
<g><path style="opacity:1" fill="#3ca48d" d="M 195.5,106.5 C 195.5,113.167 195.5,119.833 195.5,126.5C 191.937,123.634 188.27,120.968 184.5,118.5C 178.355,110.559 171.522,103.226 164,96.5C 163.814,99.0356 163.314,101.369 162.5,103.5C 162.974,96.4192 159.974,91.7525 153.5,89.5C 154.675,89.719 155.675,89.3857 156.5,88.5C 153.81,86.644 151.644,84.3106 150,81.5C 149.667,81.8333 149.333,82.1667 149,82.5C 146.542,78.8527 143.709,75.5193 140.5,72.5C 140.062,75.2949 139.062,77.6283 137.5,79.5C 138.122,74.2159 138.789,68.8826 139.5,63.5C 140.901,62.4793 142.235,61.4793 143.5,60.5C 145.137,59.7822 146.803,59.6155 148.5,60C 161.525,74.0246 174.859,87.6913 188.5,101C 191.039,102.721 193.372,104.554 195.5,106.5 Z"/></g>
<g><path style="opacity:1" fill="#97cbc0" d="M 129.5,63.5 C 130.479,66.6248 130.813,69.9581 130.5,73.5C 121.983,73.8261 113.65,73.4927 105.5,72.5C 113.5,72.5 121.5,72.5 129.5,72.5C 129.5,69.5 129.5,66.5 129.5,63.5 Z"/></g>
<g><path style="opacity:1" fill="#177c68" d="M -0.5,52.5 C 7.23345,59.878 14.9001,67.5447 22.5,75.5C 23.325,76.3857 24.325,76.719 25.5,76.5C 27.1246,79.1391 28.7913,81.8058 30.5,84.5C 31.0815,93.3241 31.7482,101.991 32.5,110.5C 32.4142,111.496 32.7476,112.329 33.5,113C 38.4118,115.372 43.2451,117.872 48,120.5C 48.4997,128.493 48.6664,136.493 48.5,144.5C 38.8384,135.006 29.0051,125.672 19,116.5C 12.2317,108.581 5.73168,101.914 -0.5,96.5C -0.5,81.8333 -0.5,67.1667 -0.5,52.5 Z"/></g>
<g><path style="opacity:1" fill="#359b85" d="M 153.5,89.5 C 147.158,88.6709 142.491,91.0042 139.5,96.5C 128.186,97.4988 116.853,97.8322 105.5,97.5C 105.5,92.1667 105.5,86.8333 105.5,81.5C 115.506,81.6665 125.506,81.4998 135.5,81C 136.044,80.2828 136.711,79.7828 137.5,79.5C 139.062,77.6283 140.062,75.2949 140.5,72.5C 143.709,75.5193 146.542,78.8527 149,82.5C 149.333,82.1667 149.667,81.8333 150,81.5C 151.644,84.3106 153.81,86.644 156.5,88.5C 155.675,89.3857 154.675,89.719 153.5,89.5 Z"/></g>
<g><path style="opacity:1" fill="#248874" d="M 82.5,112.5 C 85.7276,114.469 89.061,117.136 92.5,120.5C 93.8613,122.028 95.028,123.695 96,125.5C 96.3826,124.944 96.8826,124.611 97.5,124.5C 97.5,129.833 97.5,135.167 97.5,140.5C 96.5266,140.013 95.5266,139.513 94.5,139C 79.7641,123.601 64.0974,107.601 47.5,91C 45.7834,89.4412 43.7834,88.6079 41.5,88.5C 41.5,94.8333 41.5,101.167 41.5,107.5C 40.346,101.013 40.1794,94.3464 41,87.5C 44.7546,85.3725 48.5879,83.3725 52.5,81.5C 56.4121,83.3725 60.2454,85.3725 64,87.5C 64.3333,92.8333 64.6667,98.1667 65,103.5C 70.4953,107.164 76.3286,110.164 82.5,112.5 Z"/></g>
<g><path style="opacity:1" fill="#298e7a" d="M 97.5,87.5 C 97.5,99.8333 97.5,112.167 97.5,124.5C 96.8826,124.611 96.3826,124.944 96,125.5C 95.028,123.695 93.8613,122.028 92.5,120.5C 89.061,117.136 85.7276,114.469 82.5,112.5C 84.6491,111.41 85.9825,109.576 86.5,107C 82.6108,104.134 78.4441,101.634 74,99.5C 73.3333,95.5 73.3333,91.5 74,87.5C 77.9905,85.0878 82.1571,83.0878 86.5,81.5C 88.1368,80.7822 89.8034,80.6155 91.5,81C 92.9984,83.6637 94.9984,85.8304 97.5,87.5 Z"/></g>
<g><path style="opacity:1" fill="#1f836f" d="M 97.5,140.5 C 97.8076,142.924 97.4742,145.257 96.5,147.5C 90.4294,149.801 84.2628,151.801 78,153.5C 75.148,152.654 72.648,151.154 70.5,149C 73.2179,147.928 75.8845,146.762 78.5,145.5C 77.4229,143.271 76.7563,140.937 76.5,138.5C 71.3137,139.562 66.3137,141.229 61.5,143.5C 60.2997,142.469 58.9663,141.635 57.5,141C 56.682,132.578 56.182,124.078 56,115.5C 51.0242,112.932 46.1909,110.266 41.5,107.5C 41.5,101.167 41.5,94.8333 41.5,88.5C 43.7834,88.6079 45.7834,89.4412 47.5,91C 64.0974,107.601 79.7641,123.601 94.5,139C 95.5266,139.513 96.5266,140.013 97.5,140.5 Z"/></g>
<g><path style="opacity:1" fill="#40a18c" d="M 148.5,97.5 C 154.488,97.664 155.821,100.164 152.5,105C 146.403,105.147 145.07,102.647 148.5,97.5 Z"/></g>
<g><path style="opacity:1" fill="#0e7460" d="M -0.5,96.5 C 5.73168,101.914 12.2317,108.581 19,116.5C 29.0051,125.672 38.8384,135.006 48.5,144.5C 49.5,145.167 50.5,145.833 51.5,146.5C 51.7286,148.433 52.5619,150.1 54,151.5C 54.3333,151.167 54.6667,150.833 55,150.5C 59.1071,155.727 63.4404,160.727 68,165.5C 78.7246,174.943 88.8912,184.943 98.5,195.5C 87.8333,195.5 77.1667,195.5 66.5,195.5C 49.7545,179.587 33.4212,163.087 17.5,146C 11.4301,140.984 5.93008,135.484 1,129.5C 0.617425,130.056 0.117425,130.389 -0.5,130.5C -0.5,119.167 -0.5,107.833 -0.5,96.5 Z"/></g>
<g><path style="opacity:1" fill="#339782" d="M 148.5,113.5 C 148.821,115.048 149.821,115.715 151.5,115.5C 151.5,116.5 151.5,117.5 151.5,118.5C 155.745,119.576 158.578,122.242 160,126.5C 161.067,127.191 162.234,127.691 163.5,128C 174.256,139.646 184.922,150.479 195.5,160.5C 195.5,165.5 195.5,170.5 195.5,175.5C 186.2,166.034 176.7,156.701 167,147.5C 165.667,145.5 164.333,143.5 163,141.5C 162.667,141.833 162.333,142.167 162,142.5C 159.735,140.278 157.568,137.945 155.5,135.5C 154.614,136.325 154.281,137.325 154.5,138.5C 150.529,131.353 144.529,128.853 136.5,131C 133.833,128.333 131.167,125.667 128.5,123C 120.841,122.5 113.174,122.334 105.5,122.5C 105.5,116.833 105.5,111.167 105.5,105.5C 116.853,105.168 128.186,105.501 139.5,106.5C 141.176,110.508 144.176,112.841 148.5,113.5 Z"/></g>
<g><path style="opacity:1" fill="#359c86" d="M 195.5,126.5 C 195.5,137.833 195.5,149.167 195.5,160.5C 184.922,150.479 174.256,139.646 163.5,128C 162.234,127.691 161.067,127.191 160,126.5C 158.578,122.242 155.745,119.576 151.5,118.5C 151.5,117.5 151.5,116.5 151.5,115.5C 149.821,115.715 148.821,115.048 148.5,113.5C 156.047,114.07 160.714,110.736 162.5,103.5C 163.314,101.369 163.814,99.0356 164,96.5C 171.522,103.226 178.355,110.559 184.5,118.5C 188.27,120.968 191.937,123.634 195.5,126.5 Z"/></g>
<g><path style="opacity:1" fill="#086d5a" d="M 66.5,195.5 C 59.1667,195.5 51.8333,195.5 44.5,195.5C 44.6107,194.883 44.944,194.383 45.5,194C 40.8798,190.716 36.5465,187.05 32.5,183C 32.8333,182.667 33.1667,182.333 33.5,182C 27.0493,175.885 20.5493,169.719 14,163.5C 13.6667,163.833 13.3333,164.167 13,164.5C 12.7811,163.062 12.2811,161.729 11.5,160.5C 7.25359,156.896 3.25359,153.23 -0.5,149.5C -0.5,143.167 -0.5,136.833 -0.5,130.5C 0.117425,130.389 0.617425,130.056 1,129.5C 5.93008,135.484 11.4301,140.984 17.5,146C 33.4212,163.087 49.7545,179.587 66.5,195.5 Z"/></g>
<g><path style="opacity:1" fill="#218873" d="M 172.5,195.5 C 163.833,195.5 155.167,195.5 146.5,195.5C 132.483,180.641 118.65,166.974 105,154.5C 102.699,155.867 100.199,156.534 97.5,156.5C 99.2774,155.4 101.277,154.566 103.5,154C 104.381,153.292 105.047,152.458 105.5,151.5C 106.491,145.021 106.824,138.354 106.5,131.5C 107.873,131.343 109.207,131.51 110.5,132C 117.711,139.376 124.711,146.876 131.5,154.5C 132.689,155.429 134.022,155.762 135.5,155.5C 135.351,156.552 135.517,157.552 136,158.5C 139.21,161.009 142.043,163.842 144.5,167C 145.448,167.483 146.448,167.649 147.5,167.5C 147.351,168.552 147.517,169.552 148,170.5C 157.033,178.032 165.2,186.366 172.5,195.5 Z"/></g>
<g><path style="opacity:1" fill="#036654" d="M -0.5,149.5 C 3.25359,153.23 7.25359,156.896 11.5,160.5C 12.2811,161.729 12.7811,163.062 13,164.5C 13.3333,164.167 13.6667,163.833 14,163.5C 20.5493,169.719 27.0493,175.885 33.5,182C 33.1667,182.333 32.8333,182.667 32.5,183C 36.5465,187.05 40.8798,190.716 45.5,194C 44.944,194.383 44.6107,194.883 44.5,195.5C 29.5,195.5 14.5,195.5 -0.5,195.5C -0.5,180.167 -0.5,164.833 -0.5,149.5 Z"/></g>
<g><path style="opacity:1" fill="#298f7a" d="M 154.5,138.5 C 154.281,137.325 154.614,136.325 155.5,135.5C 157.568,137.945 159.735,140.278 162,142.5C 162.333,142.167 162.667,141.833 163,141.5C 164.333,143.5 165.667,145.5 167,147.5C 176.7,156.701 186.2,166.034 195.5,175.5C 195.5,182.167 195.5,188.833 195.5,195.5C 187.833,195.5 180.167,195.5 172.5,195.5C 165.2,186.366 157.033,178.032 148,170.5C 147.517,169.552 147.351,168.552 147.5,167.5C 146.448,167.649 145.448,167.483 144.5,167C 142.043,163.842 139.21,161.009 136,158.5C 135.517,157.552 135.351,156.552 135.5,155.5C 134.022,155.762 132.689,155.429 131.5,154.5C 124.711,146.876 117.711,139.376 110.5,132C 109.207,131.51 107.873,131.343 106.5,131.5C 106.824,138.354 106.491,145.021 105.5,151.5C 105.5,144.5 105.5,137.5 105.5,130.5C 112.175,130.334 118.842,130.5 125.5,131C 127.684,133.016 129.684,135.183 131.5,137.5C 129.047,145.089 131.38,150.589 138.5,154C 149.85,155.151 155.184,149.984 154.5,138.5 Z"/></g>
<g><path style="opacity:1" fill="#369682" d="M 140.5,138.5 C 146.488,138.664 147.821,141.164 144.5,146C 138.403,146.147 137.07,143.647 140.5,138.5 Z"/></g>
<g><path style="opacity:1" fill="#1d826d" d="M 146.5,195.5 C 138.833,195.5 131.167,195.5 123.5,195.5C 123.631,194.761 123.464,194.094 123,193.5C 112.221,182.544 101.387,171.711 90.5,161C 86.374,161.569 82.2074,162.402 78,163.5C 76.9302,163.472 76.0968,163.139 75.5,162.5C 82.8845,160.705 90.2178,158.705 97.5,156.5C 100.199,156.534 102.699,155.867 105,154.5C 118.65,166.974 132.483,180.641 146.5,195.5 Z"/></g>
<g><path style="opacity:1" fill="#177c68" d="M 51.5,146.5 C 59.5,151.833 67.5,157.167 75.5,162.5C 76.0968,163.139 76.9302,163.472 78,163.5C 82.2074,162.402 86.374,161.569 90.5,161C 101.387,171.711 112.221,182.544 123,193.5C 123.464,194.094 123.631,194.761 123.5,195.5C 115.167,195.5 106.833,195.5 98.5,195.5C 88.8912,184.943 78.7246,174.943 68,165.5C 63.4404,160.727 59.1071,155.727 55,150.5C 54.6667,150.833 54.3333,151.167 54,151.5C 52.5619,150.1 51.7286,148.433 51.5,146.5 Z"/></g>
</svg>
