<?xml version="1.0" standalone="no"?>
<!DOCTYPE svg PUBLIC "-//W3C//DTD SVG 20010904//EN"
 "http://www.w3.org/TR/2001/REC-SVG-20010904/DTD/svg10.dtd">
<svg version="1.0" xmlns="http://www.w3.org/2000/svg"
 width="225.000000pt" height="225.000000pt" viewBox="0 0 225.000000 225.000000"
 preserveAspectRatio="xMidYMid meet">

<g transform="translate(0.000000,225.000000) scale(0.100000,-0.100000)"
fill="#000000" stroke="none">
<path d="M377 2225 c-140 -38 -259 -137 -320 -265 -19 -41 -40 -99 -46 -128
-15 -73 -15 -1341 0 -1414 39 -189 185 -344 370 -393 80 -22 1408 -22 1488 0
143 38 262 135 324 265 19 41 40 99 46 128 7 35 11 272 11 710 0 551 -3 667
-15 721 -42 175 -168 313 -336 366 l-80 25 -697 -1 c-545 -1 -708 -4 -745 -14z
m505 -566 l203 -181 3 182 2 181 38 -3 37 -3 0 -178 c0 -97 3 -177 6 -177 5 0
53 40 339 282 l95 81 3 -206 2 -206 68 -3 67 -3 0 -315 0 -315 -65 -2 c-36 -1
-73 -2 -82 -2 -17 -1 -18 -17 -18 -192 0 -107 -4 -189 -9 -187 -5 2 -95 82
-200 178 -106 96 -195 176 -199 178 -4 1 -7 -78 -7 -175 l0 -178 -37 -3 -38
-3 0 180 c0 100 -3 181 -6 181 -3 0 -96 -81 -207 -180 -111 -99 -205 -180
-209 -180 -5 0 -8 85 -8 190 l0 189 -77 3 -78 3 0 315 0 315 83 3 82 3 0 204
c0 113 2 205 5 205 3 0 96 -81 207 -181z"/>
<path d="M750 1552 l0 -122 137 0 c114 0 135 2 123 13 -37 33 -217 193 -237
211 l-23 19 0 -121z"/>
<path d="M1415 1582 c-55 -48 -118 -102 -140 -119 l-40 -33 148 0 147 0 0 120
c0 66 -3 120 -7 120 -5 -1 -53 -40 -108 -88z"/>
<path d="M580 1110 l0 -240 40 0 40 0 0 59 0 59 187 181 187 181 -227 0 -227
0 0 -240z"/>
<path d="M1403 1172 l177 -178 0 -62 0 -62 45 0 45 0 0 240 0 240 -222 0 -222
0 177 -178z"/>
<path d="M911 1124 l-171 -166 0 -189 c0 -104 3 -189 6 -189 3 0 82 68 175
151 l169 151 0 204 c0 112 -2 204 -4 204 -3 0 -82 -75 -175 -166z"/>
<path d="M1171 1085 l0 -210 115 -105 c64 -58 138 -125 165 -148 l49 -44 0
194 0 193 -165 165 -165 165 1 -210z"/>
</g>
</svg>
