<?xml version="1.0" encoding="UTF-8"?>
<svg version="1.1" xmlns="http://www.w3.org/2000/svg" width="256" height="256">
<path d="M0 0 C84.48 0 168.96 0 256 0 C256 84.48 256 168.96 256 256 C171.52 256 87.04 256 0 256 C0 171.52 0 87.04 0 0 Z " fill="#FEFEFE" transform="translate(0,0)"/>
<path d="M0 0 C1.15435547 -0.03738281 2.30871094 -0.07476562 3.49804688 -0.11328125 C4.60857422 -0.12488281 5.71910156 -0.13648438 6.86328125 -0.1484375 C7.88333252 -0.16825684 8.90338379 -0.18807617 9.9543457 -0.20849609 C12.6875 0.375 12.6875 0.375 14.89746094 2.51586914 C16.6875 5.375 16.6875 5.375 17.88647461 8.46411133 C19.39354782 12.25054194 20.70191816 14.56951285 23.6875 17.375 C30.20140825 19.35519793 37.54497237 18.41727249 44.25 18.0625 C63.04386909 17.17613332 63.04386909 17.17613332 67.17944336 20.19262695 C68.75890809 22.54451452 69.74382625 24.71159593 70.6875 27.375 C71.64462891 28.93154297 71.64462891 28.93154297 72.62109375 30.51953125 C73.11738281 31.39996094 73.61367187 32.28039062 74.125 33.1875 C74.63933594 34.08082031 75.15367187 34.97414062 75.68359375 35.89453125 C76.6875 38.375 76.6875 38.375 76.609375 40.265625 C74.92702139 44.11507818 72.58742783 47.63419486 70.30664062 51.15429688 C68.09807429 54.72378698 68.09807429 54.72378698 68.15625 58.77734375 C68.91421875 60.06318359 68.91421875 60.06318359 69.6875 61.375 C70.40085922 62.72076127 71.11297023 64.06718451 71.82421875 65.4140625 C72.67077612 66.94476217 73.52120721 68.47332429 74.375 70 C74.81763184 70.79817139 75.26026367 71.59634277 75.71630859 72.41870117 C78.74479109 77.83218209 81.95304042 83.0268447 85.5078125 88.11328125 C86.92875613 90.83754073 86.94428508 92.32832549 86.6875 95.375 C85.69360352 97.57910156 85.69360352 97.57910156 84.31640625 99.765625 C83.82462891 100.55710937 83.33285156 101.34859375 82.82617188 102.1640625 C82.30603516 102.97617188 81.78589844 103.78828125 81.25 104.625 C80.4755957 105.86636719 80.4755957 105.86636719 79.68554688 107.1328125 C75.91243132 113.15006868 75.91243132 113.15006868 74.6875 114.375 C73.34487745 114.26424304 72.00643981 114.10192305 70.671875 113.91796875 C65.11978525 113.43471142 59.90849982 113.17100375 54.6875 115.375 C47.58216946 122.14996587 43.45070197 132.67930747 40 141.7265625 C38.23127065 145.71504719 37.23463644 147.79186107 33.6875 150.375 C29.47746223 151.41868417 25.38955746 151.66223132 21.0625 151.75 C19.39719238 151.79036377 19.39719238 151.79036377 17.69824219 151.83154297 C9.92719905 151.54203352 9.92719905 151.54203352 6.75488281 148.55566406 C4.77204284 145.61497935 3.21271775 142.5257925 1.74047852 139.30000305 C-0.37111787 135.05624864 -0.37111787 135.05624864 -4.27926636 132.74328613 C-6.71163167 132.60068733 -9.02420198 132.71076922 -11.453125 132.90234375 C-13.26427038 132.95308321 -15.07547193 133.0018489 -16.88671875 133.04882812 C-19.72431193 133.16871607 -22.55682003 133.31213477 -25.39111328 133.49438477 C-40.90329822 134.40185435 -40.90329822 134.40185435 -45.05737305 130.90704346 C-48.38820732 126.81292716 -50.34409835 122.23403096 -52.3125 117.375 C-52.9725 116.385 -53.6325 115.395 -54.3125 114.375 C-55.17266271 107.01095395 -51.9864739 103.33530347 -47.8671875 97.55859375 C-45.95593331 94.50909354 -45.95593331 94.50909354 -47.01831055 91.52978516 C-48.29811161 88.4100739 -49.74980411 85.61624525 -51.46484375 82.71484375 C-52.07650391 81.67392578 -52.68816406 80.63300781 -53.31835938 79.56054688 C-54.27452148 77.95276367 -54.27452148 77.95276367 -55.25 76.3125 C-55.88357422 75.23677734 -56.51714844 74.16105469 -57.16992188 73.05273438 C-60.53642509 67.32744861 -60.53642509 67.32744861 -64.02026367 61.67358398 C-65.3125 59.375 -65.3125 59.375 -65.2734375 57.0703125 C-63.90025492 53.21870282 -61.97356797 49.78734593 -59.9375 46.25 C-59.33808594 45.17685547 -59.33808594 45.17685547 -58.7265625 44.08203125 C-54.93732712 37.41347556 -54.93732712 37.41347556 -52.3125 35.375 C-50.29467773 35.22827148 -50.29467773 35.22827148 -47.99609375 35.49609375 C-42.63333611 35.86862863 -37.44981624 36.20456813 -32.3125 34.375 C-27.74024411 30.34874158 -25.67080186 24.34436988 -23.39355469 18.83154297 C-21.68549163 14.95021268 -19.48570746 11.40751406 -17.25 7.8125 C-16.86690674 7.17618652 -16.48381348 6.53987305 -16.08911133 5.88427734 C-11.7791761 -1.27285124 -8.0869339 0.09834856 0 0 Z " fill="#653AE6" transform="translate(117.3125,52.625)"/>
<path d="M0 0 C6.33301852 -0.99481708 12.75831671 -1.89771849 19 0 C23.47155848 3.40759921 25.41911629 9.17771369 27.65380859 14.16601562 C30.27131168 19.67634857 33.47507603 24.86864933 36.5625 30.125 C37.84618348 32.35872519 39.12876057 34.59308661 40.41015625 36.828125 C42.55324201 40.5401647 44.72911911 44.2216895 46.99609375 47.859375 C47.42656006 48.55272949 47.85702637 49.24608398 48.30053711 49.96044922 C49.40794828 51.72806949 50.53139314 53.48561755 51.65625 55.2421875 C53 58 53 58 52.76342773 59.85595703 C51.8304938 62.47604843 50.56333093 64.67859459 49.12890625 67.0625 C48.55462891 68.02414063 47.98035156 68.98578125 47.38867188 69.9765625 C46.78603516 70.97429687 46.18339844 71.97203125 45.5625 73 C44.37515658 74.97847967 43.18891441 76.95762075 42.00390625 78.9375 C41.47611572 79.81277344 40.9483252 80.68804687 40.40454102 81.58984375 C39.18637619 83.68018325 38.0819838 85.8360324 37 88 C28.09 88 19.18 88 10 88 C14.46540881 74.60377358 14.46540881 74.60377358 19 71 C25.52444152 69.58806681 32.41127821 70.33320084 39 71 C35.39530085 63.394964 31.39426187 56.13603382 27.09399414 48.90991211 C23.16882169 42.31200472 19.35429197 35.65480245 15.55908203 28.98144531 C12.99467999 24.47693075 10.41339309 19.98392027 7.79296875 15.51171875 C7.02617798 14.20050049 7.02617798 14.20050049 6.24389648 12.86279297 C5.26655329 11.19432966 4.28573149 9.52789795 3.30102539 7.86376953 C2.86653076 7.1211084 2.43203613 6.37844727 1.984375 5.61328125 C1.59991211 4.96141846 1.21544922 4.30955566 0.81933594 3.63793945 C0 2 0 2 0 0 Z " fill="#FCFBFE" transform="translate(68,93)"/>
<path d="M0 0 C2.830515 2.71315949 4.7314581 5.56353224 6.75 8.9375 C7.38421875 9.97777344 8.0184375 11.01804687 8.671875 12.08984375 C10 15 10 15 9 19 C6.03 24.28 3.06 29.56 0 35 C26.73 35 53.46 35 81 35 C76.85211479 47.44365562 76.85211479 47.44365562 72 52 C66.73772818 53.53222896 61.63445998 53.28700899 56.22265625 53.07421875 C54.6857207 53.05367857 53.14871267 53.03803168 51.61167908 53.02705383 C47.58358697 52.98523095 43.55992232 52.87736619 39.53356934 52.75531006 C35.41817126 52.64237701 31.30205081 52.59245975 27.18554688 52.53710938 C19.12167527 52.41945539 11.06138965 52.23196489 3 52 C0.87880975 48.2115352 -1.23901829 44.42121703 -3.35375977 40.62915039 C-4.07354237 39.33957367 -4.79423891 38.05050662 -5.51586914 36.76196289 C-6.55335719 34.90905065 -7.58753759 33.0543264 -8.62109375 31.19921875 C-9.2442749 30.08377686 -9.86745605 28.96833496 -10.50952148 27.8190918 C-12 25 -12 25 -13 22 C-11.92016602 19.63989258 -11.92016602 19.63989258 -10.25390625 16.89453125 C-9.66416016 15.91162109 -9.07441406 14.92871094 -8.46679688 13.91601562 C-7.83837891 12.89185547 -7.20996094 11.86769531 -6.5625 10.8125 C-5.93794922 9.77673828 -5.31339844 8.74097656 -4.66992188 7.67382812 C-3.12230965 5.1102262 -1.56541005 2.55275933 0 0 Z " fill="#FCFBFE" transform="translate(107,58)"/>
<path d="M0 0 C1.36326381 -0.09914876 2.7290188 -0.16721693 4.09521484 -0.20996094 C4.82238708 -0.24426208 5.54955933 -0.27856323 6.29876709 -0.31390381 C8.63578924 -0.39946483 10.96765179 -0.43089249 13.30615234 -0.44433594 C14.4826535 -0.45787109 14.4826535 -0.45787109 15.68292236 -0.47167969 C28.38347321 -0.49270111 28.38347321 -0.49270111 33.09716797 2.17089844 C36.93175377 6.04971245 38.2080231 10.66454187 39.68115234 15.80566406 C41.00115234 18.44566406 42.32115234 21.08566406 43.68115234 23.80566406 C37.08115234 23.80566406 30.48115234 23.80566406 23.68115234 23.80566406 C19.30615234 15.86816406 19.30615234 15.86816406 17.9375 13.36450195 C17.5770459 12.71731201 17.2165918 12.07012207 16.84521484 11.40332031 C16.29534912 10.40570679 16.29534912 10.40570679 15.734375 9.38793945 C14.75799674 7.63710401 14.75799674 7.63710401 12.68115234 6.80566406 C12.30023438 8.09730469 12.30023438 8.09730469 11.91162109 9.41503906 C10.61725761 12.98172956 8.99709493 15.83489161 6.99365234 19.05566406 C2.67774855 26.08754839 -1.46122232 33.21284428 -5.56884766 40.36816406 C-12.39190824 52.23668928 -19.32310037 64.03821999 -26.31884766 75.80566406 C-30.45843125 74.42580287 -31.0014826 72.39836669 -33.06884766 68.61816406 C-33.70306641 67.49023438 -34.33728516 66.36230469 -34.99072266 65.20019531 C-36.51438739 61.30588751 -36.28431166 59.80341653 -35.31884766 55.80566406 C-34.15820313 53.33398438 -34.15820313 53.33398438 -32.68603516 50.88378906 C-32.13407471 49.95284424 -31.58211426 49.02189941 -31.01342773 48.06274414 C-30.41296631 47.07040771 -29.81250488 46.07807129 -29.19384766 45.05566406 C-27.92347183 42.91944734 -26.6539727 40.78270908 -25.38525391 38.64550781 C-24.72154785 37.53288574 -24.0578418 36.42026367 -23.37402344 35.27392578 C-19.89700564 29.42524291 -16.52097952 23.5177396 -13.13134766 17.61816406 C-11.88837659 15.45770941 -10.64492133 13.29753323 -9.40087891 11.13769531 C-8.87727783 10.22737549 -8.35367676 9.31705566 -7.81420898 8.37915039 C-7.32073975 7.5298999 -6.82727051 6.68064941 -6.31884766 5.80566406 C-5.9131958 4.89163818 -5.50754395 3.9776123 -5.08959961 3.03588867 C-3.31884766 0.80566406 -3.31884766 0.80566406 0 0 Z " fill="#FCFCFE" transform="translate(155.31884765625,121.1943359375)"/>
</svg>
