<?xml version="1.0" encoding="UTF-8"?>
<!DOCTYPE svg PUBLIC "-//W3C//DTD SVG 1.1//EN" "http://www.w3.org/Graphics/SVG/1.1/DTD/svg11.dtd">
<svg xmlns="http://www.w3.org/2000/svg" version="1.1" width="200px" height="200px" style="shape-rendering:geometricPrecision; text-rendering:geometricPrecision; image-rendering:optimizeQuality; fill-rule:evenodd; clip-rule:evenodd" xmlns:xlink="http://www.w3.org/1999/xlink">
<g><path style="opacity:1" fill="#272729" d="M -0.5,-0.5 C 66.1667,-0.5 132.833,-0.5 199.5,-0.5C 199.5,66.1667 199.5,132.833 199.5,199.5C 132.833,199.5 66.1667,199.5 -0.5,199.5C -0.5,132.833 -0.5,66.1667 -0.5,-0.5 Z"/></g>
<g><path style="opacity:1" fill="#fbfbfb" d="M 87.5,34.5 C 100.746,34.1773 113.913,34.5106 127,35.5C 128.187,37.0444 128.52,38.7111 128,40.5C 121.032,52.9358 114.199,65.4358 107.5,78C 107.645,78.772 107.978,79.4387 108.5,80C 115.833,80.3333 123.167,80.6667 130.5,81C 132.444,83.1529 132.944,85.6529 132,88.5C 113.614,112.552 95.6143,136.885 78,161.5C 75.7783,164.303 73.9449,164.137 72.5,161C 80.3085,141.217 87.9751,121.384 95.5,101.5C 95.3918,100.558 95.0585,99.7247 94.5,99C 85.5,98.6667 76.5,98.3333 67.5,98C 66.1059,97.044 65.4393,95.7106 65.5,94C 72.4247,73.9898 79.7581,54.1565 87.5,34.5 Z"/></g>
</svg>
