<svg width="48" height="44" viewBox="0 0 48 44" fill="none" xmlns="http://www.w3.org/2000/svg">
<g clipPath="url(#clip0_169_716)">
<path fillRule="evenodd" clipRule="evenodd" d="M0.429019 17.0141C0.362019 17.0996 0.236313 17.0996 0.135813 17.0312C0.0269378 16.9629 -0.0232303 16.8347 0.0102696 16.7321L4.44057 2.62C4.59132 2.13279 5.0268 1.83358 5.57118 1.83358H37.279C37.48 1.83358 37.681 1.95324 37.7982 2.14129C37.9071 2.32933 37.9071 2.54303 37.7899 2.67979L2.12068 43.9305C2.03693 44.0245 1.87786 44.0245 1.75223 43.922C1.62661 43.8194 1.58474 43.6485 1.65174 43.5374L24.0884 8.14172C24.1386 8.06479 24.1302 7.95371 24.0716 7.85969C24.0046 7.76566 23.9041 7.70578 23.8036 7.70578H8.44384C8.20934 7.70578 8.0083 7.79129 7.8743 7.9537L0.429019 17.0141ZM47.5718 26.9807C47.6388 26.9037 47.756 26.8952 47.8649 26.9636C47.9654 27.0405 48.024 27.1687 47.9905 27.2627L43.5602 41.3748C43.4095 41.8706 42.9739 42.1698 42.4295 42.1698H10.7134C10.5208 42.1698 10.3198 42.05 10.2026 41.862C10.0937 41.6739 10.0937 41.4602 10.211 41.3235L45.8716 0.072833C45.9638 -0.0297382 46.123 -0.0212866 46.2486 0.0812846C46.3742 0.183856 46.4161 0.346315 46.3491 0.457433L23.904 35.8616C23.8622 35.9386 23.8706 36.0496 23.9292 36.1437C23.9962 36.2377 24.0968 36.2976 24.1973 36.2976H39.5486C39.7831 36.2976 39.9924 36.2035 40.1264 36.0411L47.5718 26.9807Z" fill="#F5F5F5"/>
</g>
<defs>
<clipPath id="clip0_169_716">
<rect width="48" height="44" fill="white"/>
</clipPath>
</defs>
</svg>
