<svg width="19" height="19" viewBox="0 0 19 19" fill="none" xmlns="http://www.w3.org/2000/svg">
<path d="M5.53333 3.61538H14.0333C14.4842 3.61538 14.9166 3.82205 15.2354 4.18991C15.5542 4.55777 15.7333 5.05669 15.7333 5.57692V6.23077M7.23333 15.3846H2.7C2.24913 15.3846 1.81673 15.178 1.49792 14.8101C1.17911 14.4422 1 13.9433 1 13.4231V2.30769C1 1.96087 1.1194 1.62825 1.33195 1.38301C1.54449 1.13777 1.83275 1 2.13333 1H7.8C8.10058 1 8.38885 1.13777 8.60139 1.38301C8.81393 1.62825 8.93333 1.96087 8.93333 2.30769V3.61538" stroke="#787774" stroke-width="0.8125" stroke-linecap="round" stroke-linejoin="round"/>
<path d="M15.7336 11.026V9.93538C15.7336 9.64647 15.6341 9.36941 15.4571 9.16512C15.28 8.96084 15.0399 8.84607 14.7895 8.84607H11.011C10.7606 8.84607 10.5205 8.96084 10.3434 9.16512C10.1664 9.36941 10.0669 9.64647 10.0669 9.93538V14.2952C10.0669 14.8968 10.4896 15.3845 11.011 15.3845H11.9562M13.4669 11.4615H16.8669C17.1675 11.4615 17.4557 11.5992 17.6683 11.8445C17.8808 12.0897 18.0002 12.4223 18.0002 12.7691V16.6922C18.0002 17.039 17.8808 17.3717 17.6683 17.6169C17.4557 17.8621 17.1675 17.9999 16.8669 17.9999H13.4669C13.1663 17.9999 12.878 17.8621 12.6655 17.6169C12.453 17.3717 12.3336 17.039 12.3336 16.6922V12.7691C12.3336 12.4223 12.453 12.0897 12.6655 11.8445C12.878 11.5992 13.1663 11.4615 13.4669 11.4615Z" stroke="#8AA2B9" stroke-width="0.8125" stroke-linecap="round" stroke-linejoin="round"/>
</svg>
